:FULLY-SPECIFIED
:FORCE-ALL-JOINTS-BE-3DOF
:DEGREES
2956
root -5.89978 13.2548 -28.9088 1232.89 -67.0744 -149.565
lfemur -67.5308 41.3592 -7.11192
ltibia 75.0963 0 0
lfoot -7.75234 -1.84356 0
ltoes -38.5766 0 0
rfemur -34.1874 -16.7675 23.3898
rtibia 89.6465 0 0
rfoot -39.8657 -30.0912 0
rtoes -13.7109 0 0
lowerback 16.225 5.21024 1.3755
upperback -4.29408 7.48884 1.40173
thorax -13.966 3.41268 -1.29366
lowerneck -2.72866 8.8517 1.19226
upperneck 7.64674 11.5953 1.84311
head 2.93866 5.83436 0.832705
lclavicle 6.60199e-15 7.38632e-15 0
lhumerus 6.30843 13.7636 82.7276
lradius 90.2668 0 0
lwrist -17.1194 0 0
lhand -38.0814 388.766 0
lfingers 7.12502 0 0
lthumb -11.117 -661.572 0
rclavicle 6.60199e-15 7.38632e-15 0
rhumerus -53.6557 48.3845 -108.594
rradius 112.323 0 0
rwrist -80.6476 0 0
rhand 5.71925 -385.768 0
rfingers 7.12502 0 0
rthumb 31.0434 306.968 0
2957
root -5.85031 13.2989 -28.9647 1229.58 -67.3552 -146.123
lfemur -67.4543 40.44 -7.34621
ltibia 73.9064 0 0
lfoot -7.72401 -1.40664 0
ltoes -38.4146 0 0
rfemur -34.1989 -16.2982 23.6826
rtibia 89.2148 0 0
rfoot -39.5599 -30.0517 0
rtoes -13.6916 0 0
lowerback 16.2186 5.17792 1.37629
upperback -4.23241 7.43913 1.37336
thorax -13.8898 3.39092 -1.30728
lowerneck -2.66007 8.60633 1.00928
upperneck 7.38784 11.2766 1.89894
head 2.84007 5.67408 0.872174
lclavicle 5.31063e-15 6.22504e-15 0
lhumerus 6.48852 13.5038 82.672
lradius 90.1048 0 0
lwrist -16.6124 0 0
lhand -37.7592 388.823 0
lfingers 7.12502 0 0
lthumb -10.806 -661.506 0
rclavicle 5.31063e-15 6.22504e-15 0
rhumerus -51.9764 47.4136 -107.67
rradius 112.146 0 0
rwrist -80.121 0 0
rhand 5.12542 -385.917 0
rfingers 7.12502 0 0
rthumb 30.4736 306.75 0
2958
root -5.80209 13.3427 -29.0182 1226.28 -67.6847 -142.693
lfemur -67.3921 39.5229 -7.58968
ltibia 72.6847 0 0
lfoot -7.69863 -0.971233 0
ltoes -38.2435 0 0
rfemur -34.2018 -15.8229 23.9781
rtibia 88.788 0 0
rfoot -39.26 -30.0073 0
rtoes -13.6806 0 0
lowerback 16.2137 5.14918 1.37975
upperback -4.17174 7.39463 1.34415
thorax -13.8155 3.37144 -1.3246
lowerneck -2.59468 8.36872 0.832817
upperneck 7.1332 10.9686 1.95036
head 2.74179 5.51921 0.909481
lclavicle 4.17503e-15 5.04593e-15 0
lhumerus 6.65001 13.2687 82.6208
lradius 89.9604 0 0
lwrist -16.0974 0 0
lhand -37.4383 388.887 0
lfingers 7.12502 0 0
lthumb -10.4962 -661.432 0
rclavicle 4.17503e-15 5.04593e-15 0
rhumerus -50.3303 46.4268 -106.775
rradius 111.979 0 0
rwrist -79.6039 0 0
rhand 4.52476 -386.07 0
rfingers 7.12502 0 0
rthumb 29.8972 306.529 0
2959
root -5.75497 13.386 -29.0695 1222.99 -68.0582 -139.273
lfemur -67.3427 38.6078 -7.84132
ltibia 71.4344 0 0
lfoot -7.67577 -0.53744 0
ltoes -38.0635 0 0
rfemur -34.1966 -15.3421 24.276
rtibia 88.3654 0 0
rfoot -38.9654 -29.9584 0
rtoes -13.6769 0 0
lowerback 16.21 5.12371 1.38559
upperback -4.11201 7.35485 1.31421
thorax -13.743 3.35405 -1.34525
lowerneck -2.53211 8.13804 0.662253
upperneck 6.88249 10.67 1.99788
head 2.64381 5.36919 0.94486
lclavicle 3.18733e-15 3.85185e-15 0
lhumerus 6.79479 13.0556 82.5737
lradius 89.8321 0 0
lwrist -15.5751 0 0
lhand -37.1185 388.958 0
lfingers 7.12502 0 0
lthumb -10.1876 -661.351 0
rclavicle 3.18733e-15 3.85185e-15 0
rhumerus -48.714 45.4257 -105.905
rradius 111.823 0 0
rwrist -79.0953 0 0
rhand 3.91804 -386.225 0
rfingers 7.12502 0 0
rthumb 29.315 306.305 0
2960
root -5.70885 13.4291 -29.1189 1219.7 -68.4703 -135.862
lfemur -67.3045 37.6946 -8.10014
ltibia 70.1588 0 0
lfoot -7.65499 -0.105352 0
ltoes -37.8748 0 0
rfemur -34.1842 -14.8567 24.5761
rtibia 87.9463 0 0
rfoot -38.6756 -29.9054 0
rtoes -13.6796 0 0
lowerback 16.2074 5.10114 1.39355
upperback -4.05312 7.31929 1.28363
thorax -13.6722 3.33851 -1.36883
lowerneck -2.47201 7.91348 0.49696
upperneck 6.63534 10.3797 2.042
head 2.54611 5.22345 0.978541
lclavicle 2.33968e-15 2.64569e-15 0
lhumerus 6.92476 12.8617 82.5304
lradius 89.718 0 0
lwrist -15.0465 0 0
lhand -36.8 389.037 0
lfingers 7.12502 0 0
lthumb -9.88012 -661.263 0
rclavicle 2.33968e-15 2.64569e-15 0
rhumerus -47.124 44.4121 -105.059
rradius 111.675 0 0
rwrist -78.5945 0 0
rhand 3.30604 -386.382 0
rfingers 7.12502 0 0
rthumb 28.7276 306.078 0
2961
root -5.6636 13.4718 -29.1667 1216.42 -68.9163 -132.458
lfemur -67.2758 36.7831 -8.36516
ltibia 68.8611 0 0
lfoot -7.63583 0.324936 0
ltoes -37.6777 0 0
rfemur -34.1652 -14.3674 24.8781
rtibia 87.5301 0 0
rfoot -38.39 -29.8487 0
rtoes -13.6877 0 0
lowerback 16.2058 5.08115 1.40333
upperback -3.99499 7.28746 1.25251
thorax -13.6027 3.32462 -1.39497
lowerneck -2.41401 7.69423 0.336311
upperneck 6.39143 10.0967 2.08322
head 2.44871 5.08141 1.01076
lclavicle 1.62424e-15 1.4303e-15 0
lhumerus 7.04179 12.6843 82.4906
lradius 89.6165 0 0
lwrist -14.5124 0 0
lhand -36.4828 389.121 0
lfingers 7.12502 0 0
lthumb -9.57392 -661.169 0
rclavicle 1.62424e-15 1.4303e-15 0
rhumerus -45.557 43.3874 -104.233
rradius 111.536 0 0
rwrist -78.1005 0 0
rhand 2.68953 -386.541 0
rfingers 7.12502 0 0
rthumb 28.136 305.849 0
2962
root -5.61909 13.5144 -29.213 1213.14 -69.3909 -129.06
lfemur -67.255 35.8731 -8.63537
ltibia 67.5445 0 0
lfoot -7.61785 0.753331 0
ltoes -37.4725 0 0
rfemur -34.1404 -13.8748 25.1816
rtibia 87.116 0 0
rfoot -38.108 -29.7886 0
rtoes -13.7002 0 0
lowerback 16.2051 5.0634 1.41465
upperback -3.93754 7.25887 1.22095
thorax -13.5345 3.31216 -1.42327
lowerneck -2.35775 7.47948 0.17968
upperneck 6.15039 9.81973 2.12205
head 2.35159 4.94251 1.04174
lclavicle 1.03315e-15 2.08571e-16 0
lhumerus 7.14779 12.5205 82.454
lradius 89.5258 0 0
lwrist -13.9739 0 0
lhand -36.1669 389.212 0
lfingers 7.12502 0 0
lthumb -9.26898 -661.07 0
rclavicle 1.03315e-15 2.08571e-16 0
rhumerus -44.0095 42.3535 -103.424
rradius 111.403 0 0
rwrist -77.6125 0 0
rhand 2.06928 -386.702 0
rfingers 7.12502 0 0
rthumb 27.5406 305.618 0
